<svg width="773" height="157" viewBox="0 0 773 157" fill="none" xmlns="http://www.w3.org/2000/svg">
<path d="M11.7439 64.4831H35.5944L52.8248 125.878H53.8677L86.9681 64.4831H110.909L99.1655 155.849H80.2574L87.9203 96.3593H87.1949L55.8628 155.441H43.1213L27.2059 96.2686H26.4804L18.8174 155.895H6.84256e-06L11.7439 64.4831Z" fill="white"/>
<path d="M119.117 155.849H98.4402L141.743 64.4831H166.636L186.315 155.849H165.729L151.854 85.2956H151.129L119.117 155.849ZM122.517 119.938H171.397L169.448 135.037H120.568L122.517 119.938Z" fill="white"/>
<path d="M185.589 155.849L197.333 64.4831H233.336C240.228 64.4831 245.986 65.7073 250.566 68.1559C255.146 70.6044 258.41 74.0958 260.451 78.5394C262.491 83.0284 263.081 88.2882 262.31 94.3188C261.539 100.349 259.544 105.564 256.37 109.962C253.196 114.361 248.979 117.671 243.719 119.983C238.459 122.296 232.293 123.429 225.265 123.429H201.142L203.137 107.922H224.131C227.849 107.922 230.978 107.423 233.562 106.38C236.147 105.337 238.142 103.841 239.593 101.846C241.044 99.8507 241.996 97.3115 242.359 94.3188C242.767 91.2355 242.495 88.6963 241.543 86.6105C240.591 84.5247 238.958 82.9831 236.646 81.8948C234.333 80.8066 231.295 80.2625 227.577 80.2625H214.518L204.77 155.804H185.589V155.849ZM236.328 155.849L219.415 114.27H240.273L257.685 155.849H236.328Z" fill="white"/>
<path d="M272.15 155.849H251.473L294.776 64.4831H319.669L339.348 155.849H318.762L304.887 85.2956H304.162L272.15 155.849ZM275.55 119.938H324.43L322.481 135.037H273.601L275.55 119.938Z" fill="white"/>
<path d="M333.635 80.3984L335.675 64.4377H410.763L408.723 80.3984H380.746L371.043 155.849H351.953L361.657 80.3984H333.635Z" fill="white"/>
<path d="M697.192 64.4831L685.449 155.849H668.762L636.478 98.3997H635.662L628.271 155.849H609L620.744 64.4831H637.657L669.714 121.933H670.531L677.922 64.4831H697.192Z" fill="white"/>
<path d="M705.4 155.849H684.723L728.026 64.4831H752.919L772.598 155.849H752.012L738.137 85.3409H737.412L705.4 155.849ZM708.8 119.938H757.68L755.731 135.037H706.851L708.8 119.938Z" fill="white"/>
<path d="M577.587 82.5848C584.479 82.5848 589.422 88.2073 588.515 95.1448L584.479 126.432C583.572 133.324 577.224 138.992 570.332 138.992L434.07 138.12C427.178 138.12 422.235 132.498 423.142 125.56L427.178 94.2737C428.085 87.3815 434.433 81.7136 441.325 81.7136L577.587 82.5848ZM579.854 65.037L443.592 64.1658C426.951 64.1658 411.761 77.6327 409.63 94.2737L405.594 125.56C403.463 142.201 415.207 155.668 431.803 155.668L568.065 156.539C584.706 156.539 599.896 143.073 602.027 126.432L606.063 95.1448C608.194 78.5039 596.495 65.037 579.854 65.037Z" fill="url(#paint0_linear_42_139)"/>
<path d="M430.459 14.0307L437.372 7.42452L437.706 7.10463V5.11087H423.212V7.43196H434.465L427.181 14.3878V16.3592H431.045C433.849 16.3592 436.215 17.4826 436.215 20.5253C436.215 23.568 433.767 25.346 430.541 25.346C427.314 25.346 425.549 24.0962 423.791 22.8463C423.049 23.8507 422.389 24.8699 422.389 24.8699C424.184 26.2908 426.194 27.6671 430.496 27.6671C435.199 27.6671 438.767 24.8401 438.767 20.4062C438.767 16.7758 435.993 14.0456 431.609 14.0456H430.444L430.459 14.0307Z" fill="white"/>
<path d="M383.788 5.11087H374.62V27.3546H377.171V18.6729H383.788C389.173 18.6729 391.45 15.6525 391.45 11.8956C391.45 8.1387 389.165 5.11831 383.788 5.11831V5.11087ZM384.47 16.3518H377.171V7.42452H384.47C388.26 7.42452 388.854 10.5044 388.854 11.8881C388.854 13.2719 388.26 16.3518 384.47 16.3518Z" fill="white"/>
<path d="M415.624 5.11087L406.99 22.8315L398.356 5.11087H395.3V27.3546H397.851V9.82744L406.263 27.362H407.717L416.128 9.82744V27.3546H418.68V5.11087H415.624Z" fill="white"/>
<path fill-rule="evenodd" clip-rule="evenodd" d="M361.38 3.37713e-05H336.991C334.788 3.37713e-05 333 1.79292 333 4.00242V28.4631C333 30.6726 334.788 32.4655 336.991 32.4655H352.301C354.897 32.4655 357.567 29.512 357.567 26.1494C357.567 22.3405 353.88 19.2531 350.083 19.2531H344.876V17.4082L354.733 8.01224H339.935V5.11088H359.54V7.10464L359.206 7.42453L349.957 16.3518C355.646 16.3518 360.467 21.0535 360.467 26.1494C360.467 28.6565 359.57 30.7544 358.16 32.4655H361.38C363.583 32.4655 365.37 30.6726 365.37 28.4631V4.00242C365.37 1.79292 363.583 3.37713e-05 361.38 3.37713e-05Z" fill="white"/>
<defs>
<linearGradient id="paint0_linear_42_139" x1="363.199" y1="48.2955" x2="588.435" y2="19.288" gradientUnits="userSpaceOnUse">
<stop stop-color="#B04DDD"/>
<stop offset="1" stop-color="#FCCBC9"/>
</linearGradient>
</defs>
</svg>
